<svg width="387" height="50" viewBox="0 0 387 50" fill="none" xmlns="http://www.w3.org/2000/svg">
<path fill-rule="evenodd" clip-rule="evenodd" d="M386.556 -13.5906L361.608 -7.67237C336.659 -1.75418 286.761 10.0822 236.856 24.9109C186.951 39.7395 137.037 57.5605 87.2036 45.4584C37.37 33.3564 -12.3839 -8.66872 -62.1777 -35.7323C-111.972 -62.7959 -161.805 -74.8979 -186.722 -80.949L-211.639 -87L-186.706 -86.9336C-161.773 -86.8672 -111.908 -86.7343 -62.0422 -86.6015C-12.1767 -86.4686 37.6888 -86.3358 87.5544 -86.2029C137.42 -86.0701 187.285 -85.9372 237.151 -85.8044C287.017 -85.6715 336.882 -85.5387 361.815 -85.4723L386.748 -85.4058L386.556 -13.5906Z" fill="#06A7E2"/>
</svg>
